<svg width="1440" height="1776" viewBox="0 0 1440 1776" fill="none" xmlns="http://www.w3.org/2000/svg">
<g clip-path="url(#clip0)">
<path d="M1036 888H0V0H1036V888Z" fill="#F9A602"/>
<path d="M0 103H685C701.569 103 715 116.431 715 133V151C715 167.569 701.569 181 685 181H0V103Z" fill="#F3A200"/>
<path d="M0 0H787C803.569 0 817 13.4315 817 30V48C817 64.5685 803.569 78 787 78H0V0Z" fill="#F3A200"/>
<path d="M0 217H255C271.569 217 285 230.431 285 247V251C285 267.569 271.569 281 255 281H0V217Z" fill="#F3A200"/>
<path d="M544 888C584.902 729.341 736.622 329.617 1016.29 0H1440V888H544Z" fill="#01F1B2"/>
<circle cx="1238.5" cy="408.5" r="34.5" fill="#05E1A7"/>
<circle cx="1329.5" cy="408.5" r="34.5" fill="#05E1A7"/>
<circle cx="1329.5" cy="590.5" r="34.5" fill="#05E1A7"/>
<circle cx="1329.5" cy="499.5" r="34.5" fill="#05E1A7"/>
<circle cx="1147.5" cy="499.5" r="34.5" fill="#05E1A7"/>
<circle cx="1147.5" cy="408.5" r="34.5" fill="#05E1A7"/>
<circle cx="1238.5" cy="588.5" r="34.5" fill="#05E1A7"/>
<circle cx="1147.5" cy="588.5" r="34.5" fill="#05E1A7"/>
<circle cx="1238.5" cy="499.5" r="34.5" fill="#05E1A7"/>
<path d="M928.322 1638.83C575.699 1660.19 303.105 1528.19 1 1058.92V888H1443V1164.22C1388.98 1315.3 1210.42 1621.73 928.322 1638.83Z" fill="#01F1B2"/>
<path d="M1 1776C149.216 1670.08 465.316 1344.19 543.982 888H1V1776Z" fill="#F9A602"/>
</g>
<defs>
<clipPath id="clip0">
<rect width="1440" height="1776" fill="white"/>
</clipPath>
</defs>
</svg>
